<svg xmlns="http://www.w3.org/2000/svg" viewBox="0 0 775.82 256.43"><defs><style>.cls-1,.cls-2{fill:#119b3e;}.cls-1{fill-rule:evenodd;}.cls-3{fill:#1f1b20;}.cls-4{font-size:21.4px;font-family:Arial-BoldMT, Arial;font-weight:700;}.cls-5{letter-spacing:-0.04em;}.cls-6{letter-spacing:-0.02em;}.cls-7{letter-spacing:0em;}.cls-8{letter-spacing:-0.07em;}.cls-9{letter-spacing:-0.02em;}</style></defs><g id="Layer_2" data-name="Layer 2"><g id="Layer_1-2" data-name="Layer 1"><path class="cls-1" d="M82,59.57s-23.1,29.79-23.38,64S66.8,171,71.94,181.3c2.76,5.54,1.48,10.31-1.54,12.18-2.59,1.6-6.6.89-8.86-1.38a13.17,13.17,0,0,1-3-5.91c-.69-2.52-1.18-5.54-1.77-8.94-1.18-6.81-1.76-13.75-2.22-18.47-.93-9.41-6.41-59.3,27.37-99.21"/><path class="cls-1" d="M96.27,130.36c-66.84,24.76-91.46,8-88.12-5.22,3.7-14.68,31.68-20.67,61.72-8.41a249.62,249.62,0,0,1,26.48,12.45h0l-.06,1.13Zm15.37,84.94s3.85,14.11,12.83,11,3.63-13.54.64-17c-2.43-2.83-19.36-32-18.72-73.71h0l.59-.24h0c30.24,18.68,70.27,52.7,118.13,121.05,0,0-44.63-78.07-112.55-123.32v0c19.45-8.22,40.37-19.51,65.94-35,44.82-27.23,72.32-69.93,53.95-89,3.77,12.16,3.18,41.42-54.88,80.17l-.2.14-.1.06h0c-14.88,10-33.71,20.56-57.44,31.27q-6.73,3-13,5.6h0a151.55,151.55,0,0,1,3.31-21.86,137.45,137.45,0,0,1,50.65-79.23C173.32,14.38,191,4.82,215.64.69,177.11-6.73,105.16,46.21,96.85,123.36h0c-59.26-34-85.9-16.66-94.39-3.79-9.12,13.82,7.27,36.92,48.61,30.79a244.47,244.47,0,0,0,45-10.92h0A140.24,140.24,0,0,0,97,153.93S99,181.44,111.64,215.3Z"/><polygon class="cls-2" points="774.73 108.43 774.73 119.47 740.08 119.47 740.08 136.89 773.08 136.89 773.08 148.37 739.93 148.37 739.93 166.51 775.4 166.51 775.4 177.64 727.36 177.64 727.36 108.43 774.73 108.43"/><rect class="cls-2" x="626.85" y="108.43" width="12.82" height="69.21"/><polygon class="cls-2" points="541.14 108.43 541.14 119.47 506.49 119.47 506.49 136.89 539.49 136.89 539.49 148.37 506.34 148.37 506.34 166.51 541.82 166.51 541.82 177.64 493.77 177.64 493.77 108.43 541.14 108.43"/><path class="cls-2" d="M429.65,177.54V108.43H461.1q21.18,0,21.19,18.55,0,12.51-16.5,20.75l21.92,29.91H471.55L450.49,147.5v-5.87q18.39-3.15,18.39-14.27c0-5.1-2.86-7.65-8.61-7.65H442.7v57.83Z"/><path class="cls-3" d="M359.26,177.54V108.43h31.45q21.18,0,21.19,18.55,0,12.51-16.5,20.75l21.92,29.91H401.16L380.1,147.5v-5.87q18.39-3.15,18.39-14.27c0-5.1-2.86-7.65-8.61-7.65H372.31v57.83Z"/><rect class="cls-3" x="331.92" y="108.43" width="12.82" height="69.21"/><polygon class="cls-3" points="263.44 177.64 250.28 177.64 279.66 108.43 293.45 108.43 323.45 177.64 309.66 177.64 301.76 158.76 278.78 158.76 283.18 147.65 297.12 147.65 286.23 121.65 263.44 177.64"/><polygon class="cls-3" points="182.06 177.64 182.06 108.43 194.88 108.43 194.88 136.99 228.99 136.99 228.99 108.43 241.82 108.43 241.82 177.64 228.99 177.64 228.99 148.12 194.88 148.12 194.88 177.64 182.06 177.64"/><path class="cls-1" d="M589.12,177.64H575.45l-29-69.21h15.25l21.4,52.91c-.19,1.65-.32,3.31-.37,5a12.61,12.61,0,0,0,6.43,11.33M625.21,20.57c10.68,31.14-6.3,83.45-17,114.87-1.89,5.58-3.9,9.91-3.7,15.94.3,8.87,5.25,10.5,2.75,18.36a11.34,11.34,0,0,1-14.23,7.36c-4.82-1.54-8.43-5.52-8.26-10.71C586.26,124.17,632.8,89.5,625.21,20.57Z"/><path class="cls-1" d="M689.82,177.64H676.15l-29-69.21h15.25l21.4,52.91c-.19,1.65-.31,3.31-.37,5a12.61,12.61,0,0,0,6.43,11.33m36.1-157.07c10.67,31.14-6.3,83.45-17,114.87-1.89,5.58-3.9,9.91-3.69,15.94.29,8.87,5.25,10.5,2.75,18.36a11.34,11.34,0,0,1-14.24,7.36c-4.82-1.54-8.43-5.52-8.25-10.71C687,124.17,733.51,89.5,725.92,20.57Z"/><path class="cls-1" d="M120.57,138.64s10.18,10.14,17,10.63,13.49-7.05,17.6-11.68,6.56-7,7.62-9.2,3.35-8.48,7-7.25,1,5.55-.92,6.8-2.07,5.29-.32,8.74,4.4,7.42,2.82,12-4.63,5.44-7.3,5-2.81-3.29-1.92-5,3-3.1,3.68-3.88.68-1.81.42-3.28-3-8.23-3.13-9.9c0,0-.35-1-3.22,2.51s-12.71,15.21-18,17.21a16.52,16.52,0,0,1-1.78.57,9.62,9.62,0,0,1-8.36-1.25c-1.68-1.17-7-6.83-8.36-7.62S119,140,119,140Z"/><path class="cls-2" d="M160.67,121.16a3.29,3.29,0,0,0,1.07-1,1.25,1.25,0,0,0,.25-.82c-.05-.23-.1-.49-.18-.79a1.69,1.69,0,0,1-.07-.7c.07-.57.36-.83.89-.79a.89.89,0,0,1,.51.2.65.65,0,0,1,.29.57,3,3,0,0,1-.86,2,7,7,0,0,1-1.75,1.45c-.16.08-.24.06-.25-.06a.25.25,0,0,1,.1-.15"/><text class="cls-4" transform="translate(359.26 206.47)"><tspan class="cls-5">A</tspan><tspan x="14.66" y="0"> </tspan><tspan class="cls-6" x="20.61" y="0">T</tspan><tspan class="cls-7" x="33.29" y="0">O</tspan><tspan class="cls-8" x="49.94" y="0">T</tspan><tspan x="61.43" y="0">A</tspan><tspan class="cls-9" x="76.88" y="0">L</tspan><tspan x="89.57" y="0" xml:space="preserve"> HAIRLOSS SOLUTION CENTRE</tspan></text></g></g></svg>