<svg xmlns="http://www.w3.org/2000/svg" xmlns:xlink="http://www.w3.org/1999/xlink" viewBox="0 0 647.05 647.05"><defs><style>.cls-1{fill:none;}.cls-2{clip-path:url(#clip-path);}</style><clipPath id="clip-path" transform="translate(0 0)"><rect class="cls-1" width="647.05" height="647.05"/></clipPath></defs><g id="Layer_2" data-name="Layer 2"><g id="svg2139"><g id="g2145"><g id="g2147"><g class="cls-2"><g id="g2149"><g id="g2155"><g id="path2157"><path d="M465.35,252a9.49,9.49,0,0,1-9.48-9.48V212.09c0-73-59.37-132.35-132.35-132.35-69.16,0-127.15,54-132,122.88a9.48,9.48,0,1,1-18.91-1.33A151.31,151.31,0,0,1,323.52,60.78c83.43,0,151.31,67.88,151.31,151.31v30.39A9.48,9.48,0,0,1,465.35,252Z" transform="translate(0 0)"/></g></g><g id="g2159"><g id="path2161"><path d="M323.52,414.05A121,121,0,0,1,203,302.61h-4.63c-18.48,0-34.32-13.73-36.07-31.25A34.81,34.81,0,0,1,196.89,233h15.2a10.8,10.8,0,0,0,10.78-10.78,21,21,0,0,1,18.32-20.68c92.48-11.87,157.23-57.49,157.87-57.95a9.48,9.48,0,0,1,11,15.43c-.73.51-5.74,4-14.47,9.23a53.48,53.48,0,0,1,28.57,47.28v6.69A10.8,10.8,0,0,0,435,233h13.75c18.47,0,34.32,13.73,36.07,31.25a34.81,34.81,0,0,1-34.62,38.36h-6.09A121.08,121.08,0,0,1,323.52,414.05ZM212.09,283.65a9.49,9.49,0,0,1,9.48,9.48,102,102,0,1,0,203.91,0,9.48,9.48,0,0,1,9.48-9.47h15.19a15.86,15.86,0,0,0,15.77-17.51c-.8-7.95-8.36-14.18-17.21-14.18H435a29.77,29.77,0,0,1-29.74-29.74v-6.69A34.52,34.52,0,0,0,372,181.07c-29.39,14.61-74.1,32.31-128.38,39.27a1.92,1.92,0,0,0-1.77,1.84A29.78,29.78,0,0,1,212.09,252h-15.2a15.86,15.86,0,0,0-15.76,17.51c.79,8,8.35,14.19,17.21,14.19Z" transform="translate(0 0)"/></g></g><g id="g2163"><g id="path2165"><path d="M404.57,100a9.47,9.47,0,0,1-9.48-9.48,71.57,71.57,0,0,0-143.13,0,9.48,9.48,0,0,1-19,0,90.53,90.53,0,0,1,181.05,0A9.48,9.48,0,0,1,404.57,100Z" transform="translate(0 0)"/></g></g><g id="g2167"><g id="path2169"><path d="M131,647.05a9.48,9.48,0,0,1-9.47-9.48V549.41A60.06,60.06,0,0,1,158,494.14l92.69-39.7a20.87,20.87,0,0,0,12.68-19.22V394.44a9.48,9.48,0,1,1,19,0v40.78a39.83,39.83,0,0,1-24.17,36.65l-92.69,39.69a41.13,41.13,0,0,0-25,37.85v88.16A9.48,9.48,0,0,1,131,647.05Z" transform="translate(0 0)"/></g></g><g id="g2171"><g id="path2173"><path d="M516,647.05a9.48,9.48,0,0,1-9.47-9.48V549.41a41.13,41.13,0,0,0-25-37.85l-92.69-39.69a39.83,39.83,0,0,1-24.17-36.65V394.44a9.48,9.48,0,1,1,18.95,0v40.78a20.89,20.89,0,0,0,12.68,19.22L489,494.14a60,60,0,0,1,36.46,55.27v88.16A9.48,9.48,0,0,1,516,647.05Z" transform="translate(0 0)"/></g></g><g id="g2187"><g id="path2189"><path d="M323.52,541.67a29.69,29.69,0,0,1-16.49-5l-79.94-53.29a9.48,9.48,0,1,1,10.52-15.77l79.93,53.29a10.76,10.76,0,0,0,12,0l79.93-53.28A9.48,9.48,0,1,1,420,483.37L340,536.66A29.69,29.69,0,0,1,323.52,541.67Z" transform="translate(0 0)"/></g></g><g id="g2191"><g id="path2193"><path d="M272.87,647.05a9.48,9.48,0,0,1,0-19,10.79,10.79,0,0,0,10.78-10.78V576.79A10.79,10.79,0,0,0,272.87,566h-81A10.8,10.8,0,0,0,181,576.79v40.52a10.8,10.8,0,0,0,10.79,10.78,9.48,9.48,0,1,1,0,19,29.77,29.77,0,0,1-29.74-29.74V576.79a29.77,29.77,0,0,1,29.74-29.74h81a29.77,29.77,0,0,1,29.74,29.74v40.52A29.77,29.77,0,0,1,272.87,647.05Z" transform="translate(0 0)"/></g></g><g id="g2195"><g id="path2197"><path d="M232.35,566a9.47,9.47,0,0,1-9.48-9.47V485.61a9.48,9.48,0,0,1,19,0v70.92A9.48,9.48,0,0,1,232.35,566Z" transform="translate(0 0)"/></g></g><g id="g2199"><g id="path2201"><path d="M414.7,586.27a9.48,9.48,0,0,1-9.48-9.48V475.48a9.48,9.48,0,1,1,19,0V576.79A9.49,9.49,0,0,1,414.7,586.27Z" transform="translate(0 0)"/></g></g><g id="g2203"><g id="path2205"><path d="M414.7,647.05a39.87,39.87,0,1,1,39.87-39.87A39.91,39.91,0,0,1,414.7,647.05Zm0-60.78a20.91,20.91,0,1,0,20.91,20.91A20.94,20.94,0,0,0,414.7,586.27Z" transform="translate(0 0)"/></g></g><g id="g2207"><g id="path2209"><path d="M546.39,434.31a70.34,70.34,0,0,1-70.26-70.26v-30.4a50.06,50.06,0,0,1,50-50h40.53a50.06,50.06,0,0,1,50,50v30.4A70.34,70.34,0,0,1,546.39,434.31Zm-20.26-131.7a31.08,31.08,0,0,0-31,31v30.4a51.31,51.31,0,0,0,102.61,0v-30.4a31.08,31.08,0,0,0-31-31Z" transform="translate(0 0)"/></g></g><g id="g2211"><g id="path2213"><path d="M637.57,576.13a9.48,9.48,0,0,1-9.48-9.47V490.08a10.78,10.78,0,0,0-7.37-10.23l-40-13.33a19.58,19.58,0,0,1-13.41-18.6V417.79a9.48,9.48,0,1,1,19,0v30.13a.65.65,0,0,0,.45.62l40,13.33a29.7,29.7,0,0,1,20.34,28.21v76.58A9.48,9.48,0,0,1,637.57,576.13Z" transform="translate(0 0)"/></g></g><g id="g2215"><g id="path2217"><path d="M495.74,471.46a9.48,9.48,0,0,1-3-18.48l13.33-4.44a.65.65,0,0,0,.45-.62V417.79a9.48,9.48,0,1,1,19,0v30.13a19.58,19.58,0,0,1-13.4,18.6L498.74,471A9.47,9.47,0,0,1,495.74,471.46Z" transform="translate(0 0)"/></g></g><g id="g2219"><g id="path2221"><path d="M546.39,492.53a19.61,19.61,0,0,1-11.76-3.89l-30.51-22.88a9.48,9.48,0,0,1,11.38-15.17L546,473.47a.68.68,0,0,0,.79,0l30.5-22.88a9.48,9.48,0,0,1,11.38,15.17l-30.51,22.88A19.62,19.62,0,0,1,546.39,492.53Z" transform="translate(0 0)"/></g></g><g id="g2223"><g id="path2225"><path d="M100.65,434.31a70.34,70.34,0,0,1-70.26-70.26V323.52a39.92,39.92,0,0,1,39.87-39.87H131a39.91,39.91,0,0,1,39.87,39.87v40.53A70.34,70.34,0,0,1,100.65,434.31ZM70.26,302.61a20.93,20.93,0,0,0-20.91,20.91v40.53a51.31,51.31,0,0,0,102.61,0V323.52A20.94,20.94,0,0,0,131,302.61Z" transform="translate(0 0)"/></g></g><g id="g2227"><g id="path2229"><path d="M9.48,576.13A9.47,9.47,0,0,1,0,566.66V490.08a29.7,29.7,0,0,1,20.34-28.21l40-13.33a.66.66,0,0,0,.44-.62V417.79a9.48,9.48,0,1,1,19,0v30.13a19.58,19.58,0,0,1-13.41,18.6l-40,13.34A10.76,10.76,0,0,0,19,490.08v76.58A9.48,9.48,0,0,1,9.48,576.13Z" transform="translate(0 0)"/></g></g><g id="g2231"><g id="path2233"><path d="M151.31,471.46a9.47,9.47,0,0,1-3-.49L135,466.52a19.57,19.57,0,0,1-13.4-18.6V417.79a9.48,9.48,0,1,1,19,0v30.13a.65.65,0,0,0,.45.62L154.3,453a9.48,9.48,0,0,1-3,18.48Z" transform="translate(0 0)"/></g></g><g id="g2235"><g id="path2237"><path d="M100.65,492.53a19.61,19.61,0,0,1-11.76-3.89L58.38,465.76a9.48,9.48,0,0,1,11.38-15.17l30.5,22.88a.66.66,0,0,0,.78,0l30.51-22.88a9.48,9.48,0,1,1,11.37,15.17l-30.5,22.88A19.67,19.67,0,0,1,100.65,492.53Z" transform="translate(0 0)"/></g></g><g id="g2239"><g id="path2241"><path d="M90.52,576.13a9.48,9.48,0,1,1,0-19,.66.66,0,0,0,.65-.65V536.26a.65.65,0,0,0-.65-.65H50a.65.65,0,0,0-.65.65v20.27a.66.66,0,0,0,.65.65,9.48,9.48,0,1,1,0,19,19.63,19.63,0,0,1-19.61-19.6V536.26A19.63,19.63,0,0,1,50,516.66H90.52a19.63,19.63,0,0,1,19.61,19.6v20.27A19.63,19.63,0,0,1,90.52,576.13Z" transform="translate(0 0)"/></g></g><g id="g2243"><g id="path2245"><path d="M70.26,535.61a9.48,9.48,0,0,1-9.48-9.48V465.35a9.48,9.48,0,1,1,19,0v60.78A9.47,9.47,0,0,1,70.26,535.61Z" transform="translate(0 0)"/></g></g><g id="g2247"><g id="path2249"><path d="M586.92,535.61a9.47,9.47,0,0,1-9.48-9.48V465.35a9.48,9.48,0,1,1,18.95,0v60.78A9.47,9.47,0,0,1,586.92,535.61Z" transform="translate(0 0)"/></g></g><g id="g2251"><g id="path2253"><path d="M586.92,576.13a29.74,29.74,0,1,1,29.74-29.74A29.77,29.77,0,0,1,586.92,576.13Zm0-40.52a10.79,10.79,0,1,0,10.78,10.78A10.8,10.8,0,0,0,586.92,535.61Z" transform="translate(0 0)"/></g></g><g id="g2255"><g id="path2257"><path d="M39.88,363.4a9.49,9.49,0,0,1-5.7-17.07l34.06-25.54A19.62,19.62,0,0,1,92,321a115.16,115.16,0,0,0,69.44,23.46,9.48,9.48,0,0,1,0,18.95A132.56,132.56,0,0,1,80.36,336a.58.58,0,0,0-.75,0l-34,25.54A9.51,9.51,0,0,1,39.88,363.4Z" transform="translate(0 0)"/></g></g></g></g></g></g></g></g></svg>