<svg id="Layer_1" enable-background="new 0 0 512 512" viewBox="0 0 512 512" xmlns="http://www.w3.org/2000/svg"><path d="m481.005 434.003c.354 4.404-2.93 8.261-7.334 8.614l-50.409 4.045c-.213.017-.427.025-.64.025-2.113 0-4.15-.837-5.656-2.343-1.658-1.658-2.505-3.96-2.317-6.297l4.044-50.408c.353-4.405 4.215-7.69 8.614-7.335 4.404.354 7.688 4.21 7.334 8.614l-2.274 28.354c40.436-44.16 62.633-101.179 62.633-161.272 0-48.985-14.728-96.077-42.591-136.185-2.521-3.629-1.623-8.613 2.006-11.135 3.629-2.519 8.613-1.623 11.135 2.006 29.733 42.8 45.45 93.049 45.45 145.314 0 64.54-23.999 125.754-67.686 173.001l29.078-2.333c4.409-.359 8.26 2.932 8.613 7.335zm-464.005-178.003c0-60.094 22.197-117.111 62.634-161.272l-2.275 28.354c-.354 4.404 2.93 8.261 7.334 8.614.218.018.434.025.648.025 4.128 0 7.63-3.174 7.965-7.36l4.044-50.408c.188-2.337-.66-4.639-2.317-6.297-1.658-1.657-3.964-2.496-6.296-2.317l-50.409 4.045c-4.404.354-7.688 4.21-7.334 8.614s4.218 7.694 8.614 7.335l29.079-2.333c-43.687 47.246-67.687 108.459-67.687 173 0 52.266 15.717 102.515 45.451 145.315 1.554 2.237 4.044 3.437 6.577 3.437 1.575 0 3.166-.464 4.558-1.431 3.628-2.521 4.526-7.506 2.006-11.135-27.864-40.107-42.592-87.2-42.592-136.186zm102.814-196.408c40.108-27.864 87.2-42.592 136.186-42.592 60.093 0 117.111 22.198 161.273 62.634l-28.354-2.275c-4.405-.357-8.261 2.931-8.614 7.335-.354 4.404 2.93 8.261 7.334 8.614l50.408 4.044c.214.017.427.025.64.025 2.113 0 4.15-.837 5.656-2.343 1.658-1.658 2.505-3.96 2.317-6.297l-4.045-50.408c-.353-4.403-4.198-7.679-8.614-7.335-4.404.354-7.688 4.211-7.334 8.614l2.333 29.078c-47.247-43.686-108.46-67.686-173-67.686-52.265 0-102.514 15.717-145.314 45.451-3.628 2.521-4.526 7.506-2.006 11.135 2.522 3.629 7.506 4.525 11.134 2.006zm272.371 392.817c-40.106 27.863-87.199 42.591-136.185 42.591-60.094 0-117.112-22.198-161.273-62.633l28.355 2.275c4.399.362 8.261-2.931 8.614-7.335.354-4.404-2.93-8.261-7.334-8.614l-50.408-4.044c-2.336-.184-4.639.66-6.296 2.317-1.658 1.658-2.505 3.96-2.317 6.297l4.045 50.408c.336 4.187 3.837 7.36 7.965 7.36.214 0 .431-.008.649-.025 4.404-.354 7.688-4.211 7.334-8.614l-2.333-29.077c47.245 43.686 108.459 67.685 172.999 67.685 52.266 0 102.514-15.717 145.314-45.45 3.628-2.521 4.526-7.506 2.005-11.135-2.52-3.629-7.507-4.523-11.134-2.006zm27.31-196.408c0 90.151-73.344 163.495-163.495 163.495s-163.496-73.344-163.496-163.495 73.344-163.495 163.496-163.495 163.495 73.344 163.495 163.495zm-16 0c0-81.329-66.166-147.495-147.495-147.495s-147.495 66.166-147.495 147.495 66.165 147.495 147.495 147.495 147.495-66.166 147.495-147.495zm-53.047 78.3c0 4.418-3.582 8-8 8h-172.897c-4.418 0-8-3.582-8-8 0-40.836 26.052-75.698 62.408-88.849-13.728-9.953-22.682-26.107-22.682-44.322 0-30.174 24.548-54.723 54.723-54.723s54.723 24.549 54.723 54.723c0 18.215-8.954 34.369-22.682 44.322 36.355 13.151 62.407 48.013 62.407 88.849zm-94.474-94.448h.026s.017 0 .026 0c21.34-.014 38.698-17.379 38.698-38.723 0-21.352-17.371-38.723-38.723-38.723s-38.723 17.371-38.723 38.723c-.001 21.344 17.357 38.709 38.696 38.723zm78.069 86.448c-4.02-39.505-37.477-70.438-78.024-70.448-.007 0-.013 0-.02 0s-.013 0-.02 0c-40.547.01-74.004 30.942-78.024 70.448z"/></svg>