<?xml version="1.0" encoding="UTF-8" standalone="no"?>
<!-- Created with Inkscape (http://www.inkscape.org/) -->

<svg
   version="1.1"
   id="svg3576"
   xml:space="preserve"
   width="682.66669"
   height="682.66669"
   viewBox="0 0 682.66669 682.66669"
   xmlns="http://www.w3.org/2000/svg"
   xmlns:svg="http://www.w3.org/2000/svg"><defs
     id="defs3580"><clipPath
       clipPathUnits="userSpaceOnUse"
       id="clipPath3590"><path
         d="M 0,512 H 512 V 0 H 0 Z"
         id="path3588" /></clipPath></defs><g
     id="g3582"
     transform="matrix(1.3333333,0,0,-1.3333333,0,682.66667)"><g
       id="g3584"><g
         id="g3586"
         clip-path="url(#clipPath3590)"><g
           id="g3592"
           transform="translate(308.167,434.0137)"><path
             d="m 0,0 c -5.02,6.898 -10.633,13.498 -16.855,19.721 -64.354,64.354 -168.692,64.354 -233.045,0 -64.354,-64.354 -64.354,-168.692 0,-233.045 64.353,-64.354 168.691,-64.354 233.045,0 36.001,36.003 51.855,84.518 47.575,131.548"
             style="fill:none;stroke:#000000;stroke-width:20;stroke-linecap:round;stroke-linejoin:round;stroke-miterlimit:10;stroke-dasharray:none;stroke-opacity:1"
             id="path3594" /></g><g
           id="g3596"
           transform="translate(260.2861,422.71)"><path
             d="m 0,0 c 47.219,-47.219 47.219,-123.776 0,-170.995 -47.219,-47.219 -123.776,-47.219 -170.995,0 -47.219,47.219 -47.219,123.776 0,170.995 C -123.775,47.219 -47.219,47.219 0,0 Z"
             style="fill:none;stroke:#000000;stroke-width:20;stroke-linecap:round;stroke-linejoin:round;stroke-miterlimit:10;stroke-dasharray:none;stroke-opacity:1"
             id="path3598" /></g><g
           id="g3600"
           transform="translate(329.0176,395.3643)"><path
             d="M 0,0 V 0"
             style="fill:none;stroke:#000000;stroke-width:20;stroke-linecap:round;stroke-linejoin:round;stroke-miterlimit:10;stroke-dasharray:none;stroke-opacity:1"
             id="path3602" /></g><g
           id="g3604"
           transform="translate(490.9902,21.0088)"><path
             d="M 0,0 -0.001,-0.001 C -14.68,-14.679 -38.478,-14.678 -53.154,0 L -163.27,110.118 -110.113,163.271 0.001,53.153 C 14.679,38.476 14.678,14.678 0,0 Z"
             style="fill:none;stroke:#000000;stroke-width:20;stroke-linecap:round;stroke-linejoin:round;stroke-miterlimit:10;stroke-dasharray:none;stroke-opacity:1"
             id="path3606" /></g><g
           id="g3608"
           transform="translate(337.6953,207.2939)"><path
             d="m 0,0 -33.764,-33.764 23.789,-42.403 53.157,53.153 z"
             style="fill:none;stroke:#000000;stroke-width:20;stroke-linecap:round;stroke-linejoin:round;stroke-miterlimit:10;stroke-dasharray:none;stroke-opacity:1"
             id="path3610" /></g><g
           id="g3612"
           transform="translate(337.6924,207.2988)"><path
             d="m 0,0 -33.765,-33.765 -31.159,31.16 c 6.479,4.789 12.682,10.131 18.546,15.997 5.599,5.597 10.705,11.504 15.332,17.654 z"
             style="fill:none;stroke:#000000;stroke-width:20;stroke-linecap:round;stroke-linejoin:round;stroke-miterlimit:10;stroke-dasharray:none;stroke-opacity:1"
             id="path3614" /></g><g
           id="g3616"
           transform="translate(160.4902,360.002)"><path
             d="M 0,0 H 16.304 V -72.918 H 33.203"
             style="fill:none;stroke:#000000;stroke-width:20;stroke-linecap:round;stroke-linejoin:round;stroke-miterlimit:10;stroke-dasharray:none;stroke-opacity:1"
             id="path3618" /></g><g
           id="g3620"
           transform="translate(176.7939,395.3643)"><path
             d="M 0,0 V 0"
             style="fill:none;stroke:#000000;stroke-width:20;stroke-linecap:round;stroke-linejoin:round;stroke-miterlimit:10;stroke-dasharray:none;stroke-opacity:1"
             id="path3622" /></g><g
           id="g3624"
           transform="translate(160.4902,287.084)"><path
             d="M 0,0 H 16.304"
             style="fill:none;stroke:#000000;stroke-width:20;stroke-linecap:round;stroke-linejoin:round;stroke-miterlimit:10;stroke-dasharray:none;stroke-opacity:1"
             id="path3626" /></g></g></g></g></svg>
